<svg xmlns="http://www.w3.org/2000/svg" width="72" height="72" viewBox="0 0 512 512">
    <path fill="#fff" d="M120.8,31.2l-23.2-23.5c-.9-1-2.2-1.5-3.6-1.5h0c-1.3,0-2.6.5-3.6,1.5l-48.7,49.5c-1.1,1.2-1.6,2.8-1.4,4.3-.2,0-.4,0-.7,0h0c-1.3,0-2.6.5-3.5,1.5l-12.1,12.3c-1.9,2-1.9,5.1,0,7l5.8,5.8-2.5,2.5c-1.1,1.2-1.6,2.7-1.4,4.2-.2,0-.4,0-.7,0h0c-1.3,0-2.6.5-3.5,1.5l-11.6,11.8c-1.4,1.4-1.8,3.6-1.1,5.4.8,1.9,2.6,3.1,4.6,3.1h13.8c1.3,0,2.6-.5,3.5-1.5l4.8-4.8c.9-.9,1.5-2.2,1.5-3.5s0-.5,0-.7c.2,0,.5,0,.7,0,1.3,0,2.6-.5,3.5-1.5l2.5-2.5,5.2,5.2c.9.9,2.2,1.5,3.5,1.5s0,0,0,0c1.4,0,2.6-.6,3.6-1.6l11.8-12.6c1.1-1.2,1.5-2.8,1.3-4.3.2,0,.4,0,.5,0s0,0,0,0c1.4,0,2.6-.6,3.6-1.6l47.3-50.6c1.8-2,1.8-5,0-6.9Z" />
    <path fill="#000" d="M99.7,5.6c-1.5-1.5-3.6-2.4-5.7-2.4h0c-2.1,0-4.2.9-5.7,2.4L21.9,73.1c-3.1,3.1-3.1,8.2,0,11.3l3.7,3.7-21.6,21.9v9.6h26.7l13.2-13.2,3.1,3.1c3.1,3.1,8.2,3.1,11.3,0,0,0,.1-.1.2-.2L123.1,40.2c2.9-3.1,2.9-8-.2-11.1l-23.2-23.5ZM27.4,111.5h-13.8l11.6-11.8,7,6.9-4.8,4.8ZM52.7,103.8l-8.8-8.8-6,6-7-7,6-6.1-9.3-9.3,12.1-12.3,24.8,24.8-11.8,12.6ZM69.9,85.3l-24.6-24.6L94,11.2l23.2,23.5-47.3,50.6Z" />
</svg>